<svg width="513" height="368" viewBox="0 0 513 368" fill="none" xmlns="http://www.w3.org/2000/svg">
<path d="M507.743 138.916C506.318 137.729 493.495 127.993 465.949 127.993C458.826 127.993 451.464 128.705 444.34 129.892C439.116 93.5605 408.958 75.9883 407.771 75.0385L400.41 70.7642L395.66 77.6506C389.724 86.9116 385.212 97.3599 382.6 108.046C377.613 128.705 380.7 148.177 391.149 164.799C378.563 171.923 358.141 173.585 353.867 173.823L16.6705 173.823C7.88436 173.823 0.760485 180.947 0.760485 189.733C0.28556 219.178 5.27227 248.623 15.4832 276.407C27.1188 306.802 44.4536 329.361 66.775 343.134C91.9461 358.569 133.027 367.355 179.332 367.355C200.229 367.355 221.126 365.455 241.785 361.656C270.518 356.431 298.063 346.458 323.472 331.973C344.369 319.862 363.128 304.427 379.038 286.38C405.871 256.222 421.781 222.503 433.417 192.582H438.166C467.374 192.582 485.421 180.947 495.395 170.973C502.044 164.799 507.03 157.2 510.592 148.652L512.729 142.478L507.743 138.916Z" fill="#0091E2"/>
<path d="M48.0154 164.087H93.1332C95.2704 164.087 97.1701 162.424 97.1701 160.05L97.1701 119.681C97.1701 117.544 95.5079 115.644 93.1332 115.644H48.0154C45.8782 115.644 43.9785 117.306 43.9785 119.681L43.9785 160.05C44.216 162.424 45.8782 164.087 48.0154 164.087ZM110.231 164.087H155.348C157.486 164.087 159.385 162.424 159.385 160.05V119.681C159.385 117.544 157.723 115.644 155.348 115.644H110.231C108.093 115.644 106.194 117.306 106.194 119.681L106.194 160.05C106.431 162.424 108.093 164.087 110.231 164.087ZM173.633 164.087H218.751C220.888 164.087 222.788 162.424 222.788 160.05V119.681C222.788 117.544 221.125 115.644 218.751 115.644L173.633 115.644C171.496 115.644 169.596 117.306 169.596 119.681V160.05C169.596 162.424 171.258 164.087 173.633 164.087ZM236.086 164.087H281.203C283.341 164.087 285.24 162.424 285.24 160.05V119.681C285.24 117.544 283.578 115.644 281.203 115.644H236.086C233.948 115.644 232.049 117.306 232.049 119.681V160.05C232.049 162.424 233.948 164.087 236.086 164.087ZM110.231 106.383H155.348C157.486 106.383 159.385 104.483 159.385 102.346V61.9777C159.385 59.8405 157.723 57.9408 155.348 57.9408L110.231 57.9408C108.093 57.9408 106.194 59.6031 106.194 61.9777L106.194 102.346C106.431 104.483 108.093 106.383 110.231 106.383ZM173.633 106.383L218.751 106.383C220.888 106.383 222.788 104.483 222.788 102.346V61.9777C222.788 59.8405 221.125 57.9408 218.751 57.9408L173.633 57.9408C171.496 57.9408 169.596 59.6031 169.596 61.9777V102.346C169.596 104.483 171.258 106.383 173.633 106.383ZM236.086 106.383H281.203C283.341 106.383 285.24 104.483 285.24 102.346V61.9777C285.24 59.8405 283.341 57.9408 281.203 57.9408L236.086 57.9408C233.948 57.9408 232.049 59.6031 232.049 61.9777V102.346C232.049 104.483 233.948 106.383 236.086 106.383ZM236.086 48.4423L281.203 48.4423C283.341 48.4423 285.24 46.7801 285.24 44.4055V4.03689C285.24 1.89973 283.341 0 281.203 0L236.086 0C233.948 0 232.049 1.66227 232.049 4.03689V44.4055C232.049 46.5427 233.948 48.4423 236.086 48.4423ZM299.013 164.087H344.131C346.268 164.087 348.168 162.424 348.168 160.05V119.681C348.168 117.544 346.506 115.644 344.131 115.644L299.013 115.644C296.876 115.644 294.976 117.306 294.976 119.681V160.05C295.214 162.424 296.876 164.087 299.013 164.087Z" fill="#0091E2"/>
</svg>
