<svg width="512" height="149" viewBox="0 0 512 149" fill="none" xmlns="http://www.w3.org/2000/svg">
<g clip-path="url(#clip0_106_24)">
<path d="M3.332 115.896V58.915H74.476V55.582H3.332V3.59897H78.974V0.266968H0V119.228H79.64V115.896H3.333H3.332ZM143.787 33.589L114.297 72.41L85.472 33.59H81.14L112.297 74.91L78.14 119.227H82.139L114.295 77.407L146.618 119.227H150.783L116.461 74.908L147.784 33.588H143.786L143.787 33.589ZM160.781 148.552V95.237H161.114C163.114 103.012 167.057 109.26 172.944 113.981C178.831 118.701 186.328 121.062 195.436 121.062C201.323 121.062 206.544 119.868 211.098 117.48C215.652 115.092 219.456 111.843 222.511 107.733C225.565 103.623 227.898 98.847 229.509 93.404C231.119 87.962 231.925 82.241 231.925 76.244C231.925 69.801 231.091 63.858 229.425 58.416C227.759 52.973 225.343 48.252 222.178 44.254C219.012 40.255 215.18 37.144 210.681 34.924C206.183 32.702 201.101 31.591 195.436 31.591C191.104 31.591 187.078 32.23 183.357 33.507C179.636 34.785 176.332 36.589 173.444 38.922C170.539 41.2729 168.011 44.054 165.946 47.169C163.836 50.335 162.225 53.806 161.114 57.583H160.781V33.589H157.449V148.552H160.781ZM195.436 117.895C184.996 117.895 176.609 114.313 170.278 107.149C163.947 99.985 160.781 89.682 160.781 76.242C160.781 70.688 161.559 65.412 163.114 60.414C164.669 55.416 166.918 51.028 169.861 47.252C172.805 43.475 176.443 40.476 180.774 38.255C185.106 36.033 189.994 34.922 195.436 34.922C200.99 34.922 205.85 36.033 210.015 38.255C214.18 40.476 217.624 43.503 220.345 47.335C223.066 51.167 225.121 55.555 226.51 60.497C227.898 65.44 228.592 70.688 228.592 76.242C228.592 81.241 227.954 86.212 226.676 91.154C225.399 96.097 223.427 100.54 220.761 104.484C218.096 108.426 214.681 111.647 210.515 114.147C206.349 116.646 201.323 117.895 195.436 117.895ZM250.252 119.228V70.744C250.252 66.079 250.918 61.524 252.252 57.082C253.584 52.639 255.639 48.723 258.416 45.336C261.193 41.948 264.719 39.282 268.996 37.338C273.272 35.394 278.354 34.589 284.241 34.922V31.59C279.131 31.48 274.661 32.034 270.829 33.256C266.996 34.478 263.692 36.144 260.915 38.255C258.138 40.365 255.917 42.836 254.251 45.669C252.586 48.4975 251.351 51.5575 250.585 54.749H250.252V33.589H246.92V119.229H250.252V119.228ZM288.406 77.075H360.049C360.272 71.188 359.689 65.524 358.3 60.081C356.912 54.638 354.69 49.806 351.636 45.586C348.581 41.365 344.638 37.977 339.806 35.422C334.974 32.867 329.226 31.59 322.562 31.59C317.785 31.59 313.12 32.59 308.566 34.59C304.012 36.589 300.013 39.504 296.57 43.336C293.127 47.168 290.35 51.861 288.24 57.416C286.13 62.969 285.074 69.3 285.074 76.409C285.074 82.74 285.796 88.655 287.24 94.153C288.684 99.651 290.905 104.428 293.904 108.482C296.904 112.536 300.764 115.674 305.484 117.895C310.204 120.117 315.897 121.172 322.562 121.061C332.336 121.061 340.556 118.311 347.22 112.814C353.885 107.315 357.828 99.568 359.05 89.571H355.718C354.274 99.013 350.58 106.094 344.638 110.814C338.695 115.535 331.226 117.895 322.228 117.895C316.119 117.895 310.954 116.84 306.733 114.73C302.513 112.62 299.069 109.731 296.403 106.066C293.738 102.4 291.766 98.096 290.489 93.153C289.211 88.211 288.517 82.851 288.406 77.075ZM356.717 73.743H288.407C288.739 67.745 289.85 62.358 291.738 57.582C293.627 52.805 296.098 48.723 299.153 45.336C302.207 41.948 305.762 39.366 309.816 37.588C313.87 35.811 318.23 34.922 322.895 34.922C328.449 34.922 333.335 35.95 337.557 38.005C341.777 40.06 345.304 42.865 348.137 46.419C350.969 49.973 353.107 54.111 354.551 58.831C355.995 63.552 356.717 68.523 356.717 73.743ZM429.194 58.915H432.526C432.526 49.362 429.749 42.42 424.196 38.088C418.641 33.756 411.088 31.59 401.536 31.59C396.204 31.59 391.706 32.257 388.04 33.59C384.375 34.922 381.376 36.644 379.043 38.754C376.711 40.864 375.045 43.197 374.045 45.752C373.045 48.307 372.545 50.751 372.545 53.083C372.545 57.748 373.378 61.469 375.045 64.246C376.711 67.023 379.321 69.189 382.875 70.744C385.319 71.854 388.095 72.854 391.206 73.744C394.316 74.632 397.926 75.576 402.036 76.575C405.701 77.465 409.311 78.353 412.866 79.241C416.42 80.13 419.558 81.324 422.279 82.823C425.001 84.323 427.222 86.239 428.944 88.572C430.665 90.904 431.526 93.959 431.526 97.735C431.526 101.401 430.666 104.511 428.944 107.065C427.237 109.607 424.99 111.74 422.363 113.314C419.697 114.924 416.725 116.09 413.449 116.812C410.172 117.534 406.979 117.895 403.869 117.895C393.761 117.895 386.013 115.646 380.626 111.148C375.239 106.649 372.546 99.568 372.546 89.904H369.213C369.213 100.679 372.129 108.565 377.96 113.564C383.792 118.562 392.428 121.061 403.869 121.061C407.534 121.061 411.227 120.644 414.949 119.811C418.669 118.978 422.002 117.618 424.945 115.729C427.863 113.867 430.314 111.359 432.109 108.399C433.942 105.399 434.859 101.734 434.859 97.402C434.859 93.292 434.053 89.96 432.443 87.405C430.832 84.851 428.722 82.74 426.111 81.074C423.501 79.408 420.558 78.103 417.281 77.159C413.986 76.2094 410.681 75.2927 407.367 74.409C403.289 73.339 399.207 72.284 395.121 71.244C391.623 70.355 388.374 69.3 385.375 68.078C382.487 66.856 380.182 65.107 378.46 62.83C376.738 60.553 375.878 57.304 375.878 53.083C375.878 52.306 376.1 50.917 376.544 48.918C376.988 46.918 378.044 44.891 379.71 42.836C381.376 40.782 383.93 38.949 387.374 37.338C390.817 35.728 395.538 34.922 401.536 34.922C405.646 34.922 409.394 35.367 412.782 36.255C416.17 37.144 419.086 38.56 421.529 40.504C423.973 42.448 425.861 44.919 427.194 47.918C428.527 50.918 429.194 54.583 429.194 58.915ZM506.335 58.915H509.667C509.667 49.362 506.891 42.42 501.337 38.088C495.783 33.756 488.23 31.59 478.677 31.59C473.346 31.59 468.847 32.257 465.182 33.59C461.516 34.922 458.517 36.644 456.185 38.754C453.852 40.864 452.186 43.197 451.186 45.752C450.186 48.307 449.687 50.751 449.687 53.083C449.687 57.748 450.52 61.469 452.187 64.246C453.852 67.023 456.463 69.189 460.017 70.744C462.461 71.854 465.237 72.854 468.347 73.744C471.457 74.632 475.067 75.576 479.177 76.575C482.843 77.465 486.453 78.353 490.007 79.241C493.562 80.13 496.699 81.324 499.421 82.823C502.142 84.323 504.364 86.239 506.085 88.572C507.807 90.904 508.668 93.959 508.668 97.735C508.668 101.401 507.807 104.511 506.085 107.065C504.378 109.607 502.131 111.74 499.505 113.314C496.838 114.924 493.867 116.09 490.59 116.812C487.314 117.534 484.12 117.895 481.01 117.895C470.902 117.895 463.155 115.646 457.768 111.148C452.38 106.649 449.687 99.568 449.687 89.904H446.355C446.355 100.679 449.27 108.565 455.102 113.564C460.933 118.562 469.569 121.061 481.01 121.061C484.676 121.061 488.369 120.644 492.09 119.811C495.81 118.978 499.143 117.618 502.087 115.729C505.005 113.867 507.456 111.359 509.251 108.399C511.084 105.399 512 101.734 512 97.402C512 93.292 511.195 89.96 509.584 87.405C507.974 84.851 505.864 82.74 503.253 81.074C500.643 79.408 497.699 78.103 494.423 77.159C491.128 76.2094 487.823 75.2927 484.509 74.409C480.431 73.339 476.349 72.284 472.263 71.244C468.764 70.355 465.515 69.3 462.516 68.078C459.628 66.856 457.323 65.107 455.602 62.83C453.88 60.553 453.019 57.304 453.019 53.083C453.019 52.306 453.241 50.917 453.686 48.918C454.13 46.918 455.186 44.891 456.851 42.836C458.517 40.782 461.072 38.949 464.515 37.338C467.959 35.728 472.679 34.922 478.678 34.922C482.788 34.922 486.536 35.367 489.924 36.255C493.312 37.144 496.227 38.56 498.671 40.504C501.115 42.448 503.003 44.919 504.336 47.918C505.669 50.918 506.336 54.583 506.336 58.915H506.335Z" fill="#222222"/>
</g>
<defs>
<clipPath id="clip0_106_24">
<rect width="512" height="148.285" fill="white" transform="translate(0 0.266968)"/>
</clipPath>
</defs>
</svg>
