<svg width="512" height="513" viewBox="0 0 512 513" fill="none" xmlns="http://www.w3.org/2000/svg">
<g clip-path="url(#clip0_105_47)">
<rect width="512" height="512" transform="translate(0 0.680664)" fill="#007ACC"/>
<path d="M112.256 257.577V278.441H178.816V467.881H226.048V278.441H292.608V257.961C292.608 246.441 292.608 237.097 292.096 236.841C292.096 236.457 251.52 236.329 202.24 236.329L112.64 236.713V257.705L112.256 257.577ZM411.392 236.201C424.448 239.273 434.432 245.161 443.392 254.505C448.128 259.625 455.168 268.585 455.68 270.889C455.68 271.657 433.536 286.633 420.096 294.953C419.584 295.337 417.536 293.161 415.488 289.833C408.832 280.361 402.048 276.265 391.424 275.497C376.064 274.473 365.824 282.537 365.824 295.977C365.824 300.073 366.592 302.377 368.128 305.705C371.584 312.745 377.984 316.969 397.824 325.673C434.432 341.417 450.304 351.785 459.904 366.633C470.784 383.273 473.216 409.385 465.92 428.969C457.728 450.345 437.76 464.809 409.216 469.545C400.256 471.081 379.776 470.825 370.176 469.161C349.696 465.321 330.112 455.081 318.08 441.897C313.344 436.777 304.256 423.081 304.768 422.185L309.632 419.113L328.832 407.977L343.296 399.529L346.624 404.009C350.848 410.665 360.32 419.625 365.824 422.697C382.464 431.273 404.736 430.121 415.744 420.137C420.48 415.785 422.528 411.177 422.528 404.777C422.528 398.889 421.632 396.201 418.688 391.721C414.592 386.089 406.4 381.481 383.36 371.241C356.864 359.977 345.6 352.809 335.104 341.801C329.088 335.145 323.584 324.777 321.024 316.201C319.104 308.777 318.464 290.601 320.256 283.305C325.76 257.705 345.088 239.785 372.736 234.665C381.696 232.873 402.816 233.641 411.648 235.945L411.392 236.201Z" fill="white"/>
</g>
<defs>
<clipPath id="clip0_105_47">
<rect width="512" height="512" fill="white" transform="translate(0 0.680664)"/>
</clipPath>
</defs>
</svg>
